<?xml version="1.0"?>
<svg width="860.13137" height="571.14799" xmlns="http://www.w3.org/2000/svg" xmlns:svg="http://www.w3.org/2000/svg" xmlns:xlink="http://www.w3.org/1999/xlink" data-name="Layer 1">
 <g class="layer">
  <title>Layer 1</title>
  <path d="m435.74,160.52c-7.67,-12.68 -16.76,-26.22 -30.99,-30.37c-16.48,-4.79 -33.41,4.74 -47.77,14.14a1392.16,1392.16 0 0 0 -123.9,91.28l0.05,0.49q46.22,-3.18 92.45,-6.37c22.26,-1.54 45.29,-3.28 64.97,-13.82c7.46,-3.99 14.74,-9.33 23.2,-9.71c10.52,-0.46 19.68,6.88 26.88,14.55c42.61,45.37 54.94,114.76 102.74,154.62a1516.99,1516.99 0 0 0 -107.63,-214.81z" fill="#f2f2f2" id="svg_1" transform="matrix(1 0 0 1 0 0)"/>
  <path d="m698.64,544.35c-4.71,-5.95 -6.64,-7.34 -11.28,-13.35q-56.77,-73.41 -106.71,-151.79q-33.93,-53.23 -64.48,-108.5q-14.55,-26.28 -28.3,-52.97q-10.67,-20.7 -20.87,-41.64c-1.94,-3.99 -3.83,-7.99 -5.71,-12.01c-4.43,-9.44 -8.77,-18.93 -13.44,-28.24c-5.32,-10.62 -11.79,-21.75 -21.55,-28.88a29.4,29.4 0 0 0 -15.32,-5.89c-7.95,-0.52 -15.28,2.76 -22.18,6.35c-50.43,26.3 -97.66,59.27 -140.37,96.8a730.78,730.78 0 0 0 -114.04,126.59c-1.01,1.44 -3.39,0.06 -2.37,-1.39q6.01,-8.5 12.26,-16.81a734.82,734.82 0 0 1 187.59,-174.99q18.25,-11.82 37.19,-22.54c6.36,-3.6 12.75,-7.16 19.25,-10.49c6.37,-3.28 13.14,-6.22 20.41,-6.33c24.77,-0.39 37.6,27.67 46.41,46.54q4.15,8.91 8.41,17.77q16.07,33.62 33.38,66.63q10.69,20.38 21.84,40.52q34.71,62.71 73.78,122.89c34.5,53.15 68.73,100.09 108.04,149.79c1.09,1.37 -0.85,3.33 -1.94,1.94z" fill="#000000" id="svg_2" transform="matrix(1 0 0 1 0 0)"/>
  <path d="m244.99,191.37c-1.44,-1.6 -2.87,-3.2 -4.32,-4.81c-11.42,-12.63 -23.68,-25.12 -39.37,-32.36a57.11,57.11 0 0 0 -23.92,-5.55c-8.56,0.03 -16.93,2.28 -24.85,5.42c-3.74,1.5 -7.39,3.19 -11,5c-4.11,2.07 -8.16,4.28 -12.18,6.51q-11.33,6.27 -22.37,13.09q-21.96,13.57 -42.54,29.21q-10.67,8.12 -20.91,16.76q-9.51,8.03 -18.64,16.49c-1.3,1.21 -3.25,-0.74 -1.95,-1.94c1.61,-1.49 3.23,-2.98 4.85,-4.45q6.88,-6.21 13.98,-12.19q12.93,-10.92 26.54,-20.99q21.17,-15.68 43.79,-29.23q11.3,-6.76 22.92,-12.96c2.33,-1.25 4.7,-2.47 7.09,-3.62a113.12,113.12 0 0 1 16.87,-6.87a60.01,60.01 0 0 1 25.47,-2.5a66.33,66.33 0 0 1 23.51,8.13c15.4,8.61 27.35,21.92 38.97,34.91c1.17,1.32 -0.76,3.27 -1.94,1.95z" fill="#000000" id="svg_3" transform="matrix(1 0 0 1 0 0)"/>
  <path d="m560.55,322.28l36.9,-13.5l18.32,-6.7c5.97,-2.18 11.93,-4.67 18.09,-6.23a28.54,28.54 0 0 1 16.38,0.21a37.74,37.74 0 0 1 12.77,7.92a103.64,103.64 0 0 1 10.47,11.18c3.99,4.8 7.92,9.64 11.87,14.47q24.44,29.89 48.56,60.04q24.13,30.15 47.92,60.56q23.86,30.48 47.39,61.21q2.88,3.77 5.76,7.54c1.06,1.38 3.45,0.02 2.37,-1.39q-23.7,-31.05 -47.73,-61.84q-24.09,-30.86 -48.52,-61.46q-24.42,-30.6 -49.18,-60.94q-6.16,-7.56 -12.35,-15.1c-3.48,-4.24 -6.92,-8.53 -10.74,-12.47c-7,-7.25 -15.75,-13.65 -26.23,-13.82c-6.16,-0.11 -12.12,1.85 -17.84,3.92c-6.17,2.23 -12.33,4.5 -18.49,6.76l-37.16,13.59l-9.29,3.4c-1.65,0.6 -0.94,3.26 0.73,2.65z" fill="#000000" id="svg_4" transform="matrix(1 0 0 1 0 0)"/>
  <path d="m196.45,170.1c-18.76,-9.64 -42.77,-7.75 -60.01,4.29a855.85,855.85 0 0 1 97.37,22.72c-13.28,-7.78 -23.67,-19.98 -37.36,-27.01z" fill="#f2f2f2" id="svg_5"/>
  <path d="m306.19,338.78l-3.61,2.94c1.22,-1.03 2.49,-1.99 3.79,-2.9c-0.06,-0.01 -0.12,-0.03 -0.18,-0.04z" fill="#f2f2f2" id="svg_6" transform="translate(-169.93432 -164.42601)"/>
  <path d="m831.55,486.85c-3.63,-4.43 -7.56,-9.06 -12.99,-10.85l-5.08,0.2a575.44,575.44 0 0 0 153.27,175.22q-67.6,-82.29 -135.2,-164.57z" fill="#f2f2f2" id="svg_7" transform="translate(-169.93432 -164.42601)"/>
  <path d="m516.08,450.37a37.48,37.48 0 0 0 14.93,20.96c2.83,1.92 6.16,3.76 7.13,7.03a8.38,8.38 0 0 1 -0.88,6.15a24.88,24.88 0 0 1 -3.86,5.04l-0.13,0.51c-7,-4.14 -13.66,-9.39 -17.53,-16.55s-4.4,-16.54 0.34,-23.14" fill="#f2f2f2" id="svg_8" transform="translate(-169.93432 -164.42601)"/>
  <path d="m749.08,653.37a37.48,37.48 0 0 0 14.93,20.96c2.83,1.92 6.16,3.76 7.13,7.03a8.38,8.38 0 0 1 -0.88,6.15a24.88,24.88 0 0 1 -3.86,5.04l-0.13,0.51c-7,-4.14 -13.66,-9.39 -17.53,-16.55s-4.4,-16.54 0.34,-23.14" fill="#f2f2f2" id="svg_9" transform="translate(-169.93432 -164.42601)"/>
  <path d="m284.08,639.37a37.48,37.48 0 0 0 14.93,20.96c2.83,1.92 6.16,3.76 7.13,7.03a8.38,8.38 0 0 1 -0.88,6.15a24.88,24.88 0 0 1 -3.86,5.04l-0.13,0.51c-7,-4.14 -13.66,-9.39 -17.53,-16.55s-4.4,-16.54 0.34,-23.14" fill="#f2f2f2" id="svg_10" transform="translate(-169.93432 -164.42601)"/>
  <circle cx="649.25" cy="51" fill="#d4b012" id="svg_11" r="51" transform="matrix(1 0 0 1 0 0)"/>
  <path d="m741.29,11.87c-24.72,-3.34 -52.94,10.02 -59.34,34.12a21.6,21.6 0 0 0 -41.1,2.11l2.83,2.03a372.27,372.27 0 0 0 160.66,-0.73c-17.19,-18.07 -38.33,-34.19 -63.05,-37.53z" fill="#002e63" id="svg_12"/>
  <path d="m635.29,79.87c-24.72,-3.34 -52.94,10.02 -59.34,34.12a21.6,21.6 0 0 0 -41.1,2.11l2.83,2.03a372.27,372.27 0 0 0 160.66,-0.73c-17.19,-18.07 -38.33,-34.19 -63.05,-37.53z" fill="#002e63" id="svg_13" transform="matrix(1 0 0 1 0 0)"/>
  <path d="m851.02,92.72a0.98,0.98 0 0 1 -0.31,-0.04c-264.4,-83.62 -497.44,-72.69 -646.38,-48.79c-20.26,3.25 -40.59,7.01 -60.4,11.16c-5.06,1.06 -10.31,2.2 -15.6,3.38c-6.32,1.41 -12.55,2.86 -18.53,4.31q-3.87,0.91 -7.59,1.84c-3.76,0.93 -7.58,1.9 -11.66,2.96c-4.57,1.18 -9.21,2.41 -13.8,3.67a0.44,0.44 0 0 1 -0.05,0.02l0,0c-5.18,1.41 -10.34,2.87 -15.32,4.32c-2.7,0.78 -5.31,1.55 -7.8,2.31c-0.28,0.08 -0.53,0.15 -0.78,0.23l-0.54,0.16c-0.31,0.1 -0.61,0.19 -0.92,0.28l-0.02,0l0,0l-0.81,0.26c-0.97,0.29 -1.91,0.57 -2.84,0.86c-24.55,7.57 -38.04,12.95 -38.17,13a1,1 0 1 1 -0.75,-1.85c0.14,-0.06 13.7,-5.47 38.33,-13.06c0.93,-0.29 1.88,-0.57 2.85,-0.87l0.75,-0.23c0.03,-0.01 0.06,-0.02 0.08,-0.03c0.31,-0.08 0.61,-0.18 0.92,-0.27l0.54,-0.16c0.27,-0.09 0.53,-0.17 0.8,-0.24c2.48,-0.75 5.09,-1.52 7.8,-2.31c4.99,-1.45 10.15,-2.91 15.33,-4.32c0.02,-0.01 0.03,-0.01 0.05,-0.02l0,0c4.61,-1.26 9.26,-2.5 13.85,-3.68c4.09,-1.07 7.91,-2.04 11.68,-2.97q3.73,-0.93 7.6,-1.85c5.99,-1.45 12.24,-2.9 18.57,-4.31c5.3,-1.19 10.55,-2.32 15.62,-3.38c19.84,-4.17 40.2,-7.93 60.5,-11.18c149.15,-23.94 382.52,-34.89 647.3,48.85a1,1 0 0 1 -0.3,1.95z" fill="#000000" id="svg_14"/>
  <path d="m263.99,419.84a6.73,6.73 0 0 0 -1.7,-2.67a6.43,6.43 0 0 0 -0.92,-0.71c-2.61,-1.74 -6.51,-2.13 -8.99,0a5.81,5.81 0 0 0 -0.69,0.71q-1.11,1.36 -2.28,2.67c-1.28,1.46 -2.59,2.87 -3.96,4.24c-0.39,0.38 -0.78,0.77 -1.18,1.15c-0.23,0.23 -0.46,0.45 -0.69,0.67c-0.88,0.84 -1.78,1.65 -2.69,2.45c-0.48,0.43 -0.96,0.85 -1.45,1.26c-0.73,0.61 -1.46,1.22 -2.2,1.81c-0.07,0.05 -0.14,0.1 -0.21,0.16c-0.02,0.01 -0.03,0.03 -0.05,0.04c-0.01,0 -0.02,0 -0.03,0.02a0.18,0.18 0 0 0 -0.07,0.05c-0.22,0.15 -0.37,0.25 -0.48,0.34c0.04,-0.02 0.08,-0.05 0.12,-0.07c-0.18,0.14 -0.37,0.28 -0.55,0.42c-1.75,1.29 -3.54,2.53 -5.37,3.69a99.21,99.21 0 0 1 -14.22,7.55c-0.33,0.13 -0.67,0.27 -1.01,0.4a85.97,85.97 0 0 1 -40.85,6.02q-2.13,-0.17 -4.26,-0.45c-1.64,-0.24 -3.27,-0.53 -4.89,-0.86a97.93,97.93 0 0 1 -18.02,-5.44a118.65,118.65 0 0 1 -20.66,-12.12c-1,-0.71 -2.01,-1.42 -3.02,-2.11c1.15,-2.82 2.28,-5.64 3.38,-8.48c0.55,-1.37 1.08,-2.74 1.6,-4.12c4.09,-10.63 7.93,-21.36 11.61,-32.13q5.58,-16.37 10.53,-32.92q0.51,-1.68 0.99,-3.36q2.6,-8.75 4.98,-17.53c0.15,-0.57 0.31,-1.13 0.45,-1.7q0.69,-2.52 1.35,-5.04c1,-3.79 -1.26,-8.32 -5.24,-9.23a7.63,7.63 0 0 0 -9.22,5.24c-0.43,1.62 -0.86,3.23 -1.3,4.85q-3.16,11.74 -6.66,23.41q-0.51,1.68 -1.02,3.36q-7.71,25.41 -16.93,50.31q-1.11,3.01 -2.25,6.01c-0.37,0.98 -0.74,1.96 -1.12,2.94c-0.73,1.93 -1.48,3.86 -2.23,5.79c-0.43,1.13 -0.87,2.26 -1.31,3.38c-0.29,0.71 -0.57,1.42 -0.85,2.12a41.81,41.81 0 0 0 -8.81,-2.12l-0.48,-0.06a27.4,27.4 0 0 0 -7.01,0.06a23.91,23.91 0 0 0 -17.24,10.66c-4.77,7.51 -4.71,18.25 1.98,24.63c6.89,6.57 17.32,6.52 25.43,2.41a28.35,28.35 0 0 0 10.52,-9.86a50.57,50.57 0 0 0 2.74,-4.65c0.21,0.14 0.42,0.28 0.63,0.43c0.8,0.56 1.6,1.13 2.39,1.69a111.74,111.74 0 0 0 14.51,8.91a108.36,108.36 0 0 0 34.62,10.47c0.27,0.03 0.53,0.07 0.8,0.1c1.33,0.17 2.67,0.3 4.01,0.41a103.78,103.78 0 0 0 55.58,-11.36q2.18,-1.13 4.31,-2.36q3.32,-1.92 6.48,-4.08c1.15,-0.78 2.27,-1.57 3.38,-2.4a101.04,101.04 0 0 0 13.51,-11.95q2.36,-2.48 4.51,-5.11a8.06,8.06 0 0 0 2.2,-5.3a7.56,7.56 0 0 0 -0.5,-2.64zm-165.59,23.82c0.21,-0.15 0.42,-0.31 0.62,-0.47c-0.06,0.15 -0.35,0.32 -0.62,0.47zm3.21,-3.23c-0.23,0.26 -0.44,0.52 -0.67,0.78a23.37,23.37 0 0 1 -2.25,2.2c-0.11,0.1 -0.23,0.2 -0.35,0.29a0.01,0.01 0 0 0 -0.01,0.01a3.8,3.8 0 0 0 -0.42,0.22q-0.64,0.39 -1.32,0.72a17,17 0 0 1 -2.71,0.75a16.8,16.8 0 0 1 -2.13,0.02l-0.02,0a14.82,14.82 0 0 1 -1.45,-0.4c-0.24,-0.12 -0.47,-0.26 -0.7,-0.4c-0.09,-0.08 -0.17,-0.16 -0.22,-0.21a2.44,2.44 0 0 1 -0.27,-0.29a0.01,0.01 0 0 0 -0.01,-0.01c-0.11,-0.2 -0.23,-0.4 -0.34,-0.6a0.03,0.03 0 0 1 -0.01,-0.02c-0.08,-0.25 -0.15,-0.51 -0.21,-0.77a12.51,12.51 0 0 1 0.01,-1.37a13.47,13.47 0 0 1 0.54,-1.88a11.07,11.07 0 0 1 0.69,-1.26c0.02,-0.04 0.12,-0.2 0.23,-0.38c0.01,-0.01 0.01,-0.01 0.01,-0.02c0.15,-0.17 0.3,-0.35 0.46,-0.51c0.27,-0.3 0.56,-0.56 0.85,-0.83a18.02,18.02 0 0 1 1.75,-1.01a19.48,19.48 0 0 1 2.93,-0.79a24.99,24.99 0 0 1 4.41,0.04a30.3,30.3 0 0 1 4.1,1.01a36.94,36.94 0 0 1 -2.77,4.54c-0.04,0.06 -0.08,0.12 -0.12,0.17zm-11.12,-3.29a2.18,2.18 0 0 1 -0.31,0.39a1.41,1.41 0 0 1 0.31,-0.39z" fill="#002e63" id="svg_15" transform="matrix(1 0 0 1 0 0)"/>
  <path d="m233.93,317.71q-0.13,4.71 -0.27,9.42q-0.28,10.45 -0.59,20.92q-0.31,11.77 -0.66,23.54q-0.16,6.07 -0.34,12.15q-0.46,16.36 -0.92,32.72c-0.03,1.13 -0.07,2.25 -0.1,3.38q-0.22,8.11 -0.45,16.23q-0.25,8.8 -0.5,17.61q-0.18,6.6 -0.37,13.21q-1.35,47.89 -2.7,95.79a7.65,7.65 0 0 1 -7.5,7.5a7.56,7.56 0 0 1 -7.5,-7.5q0.75,-26.94 1.52,-53.88q0.68,-24.36 1.37,-48.72q0.23,-8.03 0.45,-16.06q0.35,-12.09 0.68,-24.18c0.03,-1.13 0.07,-2.25 0.1,-3.38c0.02,-0.99 0.05,-1.97 0.08,-2.96q0.66,-23.48 1.32,-46.96q0.27,-9.24 0.52,-18.49q0.3,-10.55 0.6,-21.08c0.09,-3.09 0.17,-6.17 0.26,-9.26a7.65,7.65 0 0 1 7.5,-7.5a7.56,7.56 0 0 1 7.5,7.5z" fill="#002e63" id="svg_16" transform="matrix(1 0 0 1 0 0)"/>
  <path d="m645.36,319.79a893.24,893.24 0 0 1 -28.16,87.94c-3.01,7.94 -6.08,15.88 -9.37,23.71l0.75,-1.79a54.58,54.58 0 0 1 -5.58,10.61q-0.23,0.32 -0.47,0.64q1.16,-1.49 0.44,-0.59c-0.25,0.3 -0.5,0.6 -0.77,0.89a23.66,23.66 0 0 1 -2.25,2.21q-0.3,0.25 -0.61,0.5l0.94,-0.73c-0.11,0.26 -0.87,0.6 -1.11,0.74a18.25,18.25 0 0 1 -2.4,1.22l1.79,-0.75a19.09,19.09 0 0 1 -4.23,1.16l1.99,-0.27a17.02,17.02 0 0 1 -4.3,0.05l2,0.26a14,14 0 0 1 -3.41,-0.91l1.79,0.75a12.01,12.01 0 0 1 -1.68,-0.89c-0.27,-0.18 -1.1,-0.81 -0.01,0.02c1.13,0.87 0.14,0.08 -0.09,-0.15c-0.19,-0.2 -0.37,-0.4 -0.56,-0.6c-0.88,-0.9 1,1.56 0.4,0.5a18.18,18.18 0 0 1 -0.88,-1.64l0.76,1.79a11.92,11.92 0 0 1 -0.73,-2.65l0.27,2a13.65,13.65 0 0 1 -0.01,-3.41l-0.27,2a15.96,15.96 0 0 1 1,-3.68l-0.76,1.79a16.73,16.73 0 0 1 1.18,-2.3a6.73,6.73 0 0 1 0.73,-1.07c0.05,0.01 -1.27,1.51 -0.57,0.75c0.18,-0.19 0.35,-0.4 0.54,-0.6c0.3,-0.31 0.61,-0.6 0.92,-0.9c1.05,-0.99 -1.46,0.97 -0.25,0.18a19.05,19.05 0 0 1 2.75,-1.5l-1.79,0.76a20.31,20.31 0 0 1 4.99,-1.34l-1.99,0.27a25.63,25.63 0 0 1 6.46,0.07l-2,-0.26a33.21,33.21 0 0 1 7.9,2.22l-1.8,-0.76c5.39,2.31 10.17,5.75 14.93,9.12a111.95,111.95 0 0 0 14.51,8.9a108.39,108.39 0 0 0 34.62,10.48a103.93,103.93 0 0 0 92.59,-36.75a8.08,8.08 0 0 0 2.19,-5.31a7.63,7.63 0 0 0 -2.19,-5.3c-2.76,-2.53 -7.95,-3.24 -10.61,0a95.64,95.64 0 0 1 -8.11,8.73q-2.01,1.91 -4.14,3.71q-1.21,1.02 -2.46,2.01c-0.39,0.31 -1.62,1.14 0.26,-0.2c-0.43,0.31 -0.84,0.64 -1.27,0.96a99.27,99.27 0 0 1 -20.33,11.56l1.79,-0.76a96.84,96.84 0 0 1 -24.17,6.63l1.99,-0.27a97.64,97.64 0 0 1 -25.75,-0.04l1.99,0.27a99.8,99.8 0 0 1 -24.85,-6.77l1.79,0.75a116.03,116.03 0 0 1 -21.74,-12.59a86.88,86.88 0 0 0 -11.11,-6.99a42.82,42.82 0 0 0 -14.44,-4.39c-9.44,-1.11 -19.06,2.57 -24.24,10.72c-4.78,7.51 -4.72,18.24 1.97,24.63c6.89,6.57 17.32,6.51 25.43,2.4c7.82,-3.96 12.52,-12.18 15.82,-19.94c7.43,-17.46 14.01,-35.31 20.14,-53.26q9.1,-26.64 16.5,-53.82q0.92,-3.36 1.81,-6.74c1,-3.78 -1.27,-8.32 -5.24,-9.22a7.63,7.63 0 0 0 -9.23,5.24z" fill="#002e63" id="svg_17" transform="matrix(1 0 0 1 0 0)"/>
  <path d="m720.19,317.71l-2.7,95.79l-2.68,95.29l-1.52,53.89a7.56,7.56 0 0 0 7.5,7.5a7.65,7.65 0 0 0 7.5,-7.5l2.7,-95.8l2.69,-95.29l1.51,-53.88a7.56,7.56 0 0 0 -7.5,-7.5a7.65,7.65 0 0 0 -7.5,7.5z" fill="#002e63" id="svg_18" transform="matrix(1 0 0 1 0 0)"/>
  <path d="m520.89,390.06c-8.61,-16.8 -21.94,-30.92 -37.63,-41.31a114.24,114.24 0 0 0 -52.56,-18.38q-3.69,-0.33 -7.4,-0.39c-2.92,-0.04 -46.87,12.63 -61.59,22.98a114.29,114.29 0 0 0 -35.33,39.53a102.5,102.5 0 0 0 -12.13,51.63a113.56,113.56 0 0 0 14.7,51.48a110.48,110.48 0 0 0 36.45,38.74c15.34,9.79 30.74,35.74 48.85,36.66c18.25,0.92 39.06,-23.56 55.7,-30.99a104.43,104.43 0 0 0 41.72,-34.01a110.25,110.25 0 0 0 19.6,-48.94c2.58,-18.09 1.38,-36.74 -4.8,-54.02a111.86,111.86 0 0 0 -5.58,-12.98c-1.78,-3.51 -6.99,-4.8 -10.26,-2.69a7.68,7.68 0 0 0 -2.69,10.26q1.57,3.09 2.91,6.27l-0.75,-1.79a101.15,101.15 0 0 1 6.87,25.54l-0.26,-1.99a109.23,109.23 0 0 1 -0.07,28.68l0.27,-1.99a109.73,109.73 0 0 1 -7.56,27.67l0.76,-1.79a104.21,104.21 0 0 1 -6.67,13.1q-1.92,3.18 -4.08,6.22c-0.63,0.89 -1.28,1.76 -1.94,2.63c-0.86,1.14 1.17,-1.48 0.28,-0.37c-0.15,0.19 -0.3,0.38 -0.45,0.57q-0.68,0.85 -1.38,1.69a93.61,93.61 0 0 1 -10.18,10.38q-1.36,1.19 -2.78,2.33c-0.47,0.38 -0.93,0.78 -1.42,1.13c0.02,-0.02 1.58,-1.2 0.66,-0.51c-0.29,0.21 -0.58,0.43 -0.87,0.65q-2.91,2.15 -5.98,4.09a103.49,103.49 0 0 1 -14.75,7.71l1.79,-0.75a109.21,109.21 0 0 1 -27.6,7.55l2,-0.27a108.15,108.15 0 0 1 -28.59,0.05l1.99,0.27a99.83,99.83 0 0 1 -25.09,-6.79l1.79,0.76a93.64,93.64 0 0 1 -13.42,-6.99q-3.17,-2 -6.18,-4.25c-0.29,-0.21 -0.57,-0.43 -0.86,-0.64c-0.91,-0.69 0.66,0.51 0.67,0.51a19.17,19.17 0 0 1 -1.53,-1.22q-1.45,-1.18 -2.86,-2.42a101.99,101.99 0 0 1 -10.5,-10.71q-1.21,-1.43 -2.37,-2.91c-0.33,-0.43 -0.95,-1.29 0.4,0.53c-0.17,-0.24 -0.36,-0.48 -0.54,-0.72q-0.64,-0.85 -1.27,-1.72q-2.21,-3.05 -4.19,-6.25a109.29,109.29 0 0 1 -7.81,-15.11l0.76,1.79a106.59,106.59 0 0 1 -7.34,-26.83l0.27,1.99a97.87,97.87 0 0 1 -0.05,-25.63l-0.27,1.99a94.67,94.67 0 0 1 6.6,-23.96l-0.76,1.79a101.56,101.56 0 0 1 7.2,-13.85q2.06,-3.33 4.37,-6.49q0.53,-0.72 1.07,-1.43c0.32,-0.43 1.21,-1.49 -0.31,0.39c0.15,-0.18 0.29,-0.37 0.44,-0.56q1.27,-1.61 2.6,-3.16a107.4,107.4 0 0 1 10.88,-11.02q1.48,-1.3 3,-2.53q0.69,-0.57 1.39,-1.12c0.18,-0.14 0.37,-0.29 0.56,-0.44c-2,1.59 -0.56,0.44 -0.1,0.1q3.13,-2.35 6.43,-4.46a103.64,103.64 0 0 1 15.39,-8.11l-1.79,0.75c7.76,-3.25 42.14,-10.94 48.39,-10.11l-1.99,-0.26a106.22,106.22 0 0 1 26.72,7.38l-1.79,-0.76a110.31,110.31 0 0 1 12.6,6.33q3.04,1.79 5.96,3.76q1.39,0.94 2.74,1.92q0.68,0.49 1.35,0.99c0.25,0.18 0.49,0.37 0.74,0.56c1.04,0.78 -1.43,-1.13 -0.34,-0.27a110.84,110.84 0 0 1 10.37,9.25q2.4,2.45 4.63,5.05q1.15,1.33 2.25,2.71c0.36,0.45 1.6,2.1 0.08,0.08c0.37,0.49 0.75,0.98 1.12,1.48a97.98,97.98 0 0 1 8.39,13.54c1.79,3.5 6.99,4.8 10.26,2.69a7.68,7.68 0 0 0 2.69,-10.26z" fill="#002e63" id="svg_23"/>
  <circle cx="96.25" cy="439" fill="#002e63" id="svg_25" r="11" transform="matrix(1 0 0 1 0 0)"/>
  <circle cx="228.25" cy="559" fill="#002e63" id="svg_26" r="11" transform="matrix(1 0 0 1 0 0)"/>
  <circle cx="729.25" cy="559" fill="#002e63" id="svg_27" r="11" transform="matrix(1 0 0 1 0 0)"/>
  <circle cx="756.25" cy="419" fill="#002e63" id="svg_28" r="11" transform="matrix(1 0 0 1 0 0)"/>
  <circle cx="724.25" cy="317" fill="#002e63" id="svg_29" r="11" transform="matrix(1 0 0 1 0 0)"/>
  <path d="m265.25,419a10.95,10.95 0 1 1 -0.21,-2.16a10.99,10.99 0 0 1 0.21,2.16z" fill="#002e63" id="svg_30" transform="matrix(1 0 0 1 0 0)"/>
  <circle cx="485.25" cy="349" fill="#002e63" id="svg_31" r="11" transform="matrix(1 0 0 1 0 0)"/>
  <path d="m375.25,349a10.95,10.95 0 1 1 -0.21,-2.16a10.99,10.99 0 0 1 0.21,2.16z" fill="#002e63" id="svg_32" transform="matrix(1 0 0 1 0 0)"/>
  <path d="m234.25,317a10.95,10.95 0 1 1 -0.21,-2.16a10.99,10.99 0 0 1 0.21,2.16z" fill="#002e63" id="svg_33" transform="matrix(1 0 0 1 0 0)"/>
  <circle cx="600.25" cy="443" fill="#002e63" id="svg_34" r="11" transform="matrix(1 0 0 1 0 0)"/>
  <circle cx="427.25" cy="338" fill="#002e63" id="svg_35" r="16" transform="matrix(1 0 0 1 0 0)"/>
  <path d="m1028.88,735.27l-857.75,0.3a1.19,1.19 0 1 1 0,-2.38l857.75,-0.3a1.19,1.19 0 0 1 0,2.38z" fill="#cacaca" id="svg_36" transform="translate(-169.93432 -164.42601)"/>
  <use id="svg_68" transform="matrix(0.346413 0 0 0.355284 49.8256 19.373)" x="822.97" xlink:href="#svg_67" y="937.96"/>
 </g>
 <defs>
  <symbol height="498" id="svg_67" preserveAspectRatio="xMidYMid meet" version="1" width="501" xmlns="http://www.w3.org/2000/svg" xmlns:svg="http://www.w3.org/2000/svg">
   <g class="layer">
    <title>Layer 1</title>
    <g fill="#000000" id="svg_19" transform="matrix(0.1 0 0 -0.1 0 0)">
     <path d="m2325,-285c-635,-99 -1133,-566 -1281,-1200c-26,-109 -28,-138 -29,-315c0,-223 15,-328 72,-499c173,-522 612,-914 1155,-1031c120,-27 368,-37 498,-21c514,64 966,383 1195,846c71,143 104,237 137,389c19,86 22,132 22,306c0,189 -2,214 -28,325c-33,142 -79,265 -146,394c-74,139 -152,243 -280,371c-244,244 -555,398 -890,439c-111,14 -324,12 -425,-4zm495,-20c186,-33 402,-118 565,-223c473,-305 749,-867 696,-1415c-39,-395 -199,-725 -482,-991c-232,-218 -530,-360 -846,-401c-376,-49 -746,40 -1068,259c-123,83 -314,275 -394,396c-122,183 -207,389 -247,600c-27,143 -25,400 4,547c134,675 664,1160 1362,1247c71,9 318,-3 410,-19z" fill="#d4b012" id="svg_66"/>
     <path d="m2567,-422c-3,-64 -1,-95 7,-100c6,-4 44,-8 84,-8c65,0 73,2 70,18c-2,13 -15,18 -56,20c-48,3 -53,5 -50,25c3,19 8,21 49,19c34,-3 48,1 52,11c8,22 -1,27 -50,27c-36,0 -43,3 -43,20c0,18 7,20 55,20c40,0 55,4 55,14c0,13 -66,26 -136,26l-31,0l-6,-92z" fill="#d4b012" id="svg_65"/>
     <path d="m2342,-347c-23,-4 -23,-7 -17,-81c10,-120 7,-115 77,-109c76,7 108,33 108,89c0,44 -22,93 -45,102c-18,7 -86,6 -123,-1zm96,-45c7,-7 12,-28 12,-48c0,-40 -14,-60 -42,-60c-12,0 -18,8 -18,23c0,12 -3,39 -6,60c-6,34 -5,37 18,37c13,0 29,-5 36,-12z" fill="#d4b012" id="svg_64"/>
     <path d="m3092,-535c-40,-80 -41,-85 -22,-95c27,-15 27,-14 54,38c27,51 31,48 40,-33c6,-45 24,-75 47,-75c4,0 28,37 53,83c41,74 44,83 29,95c-25,18 -31,15 -53,-28c-11,-22 -24,-40 -29,-40c-5,0 -12,27 -16,60c-7,57 -22,80 -52,80c-5,0 -27,-38 -51,-85z" fill="#d4b012" id="svg_63"/>
     <path d="m1875,-498c-22,-5 -105,-51 -105,-58c0,-9 82,-154 90,-159c10,-6 92,39 115,65c24,27 14,84 -21,121c-28,30 -48,37 -79,31zm30,-59c9,-9 21,-28 26,-42c9,-21 7,-29 -11,-43c-27,-22 -29,-21 -60,37c-22,39 -23,47 -10,55c22,14 36,12 55,-7z" fill="#d4b012" id="svg_62"/>
     <path d="m2405,-577c-440,-55 -822,-334 -994,-727c-88,-202 -115,-355 -101,-583c18,-314 139,-580 364,-803c373,-371 908,-472 1387,-261c248,109 476,326 602,572c277,544 115,1215 -381,1572c-156,112 -338,189 -526,222c-80,14 -271,18 -351,8zm270,-108c166,-35 314,-148 383,-293c35,-73 37,-82 36,-177c0,-84 -5,-110 -26,-162c-73,-173 -222,-316 -484,-464c-184,-104 -269,-163 -350,-243c-155,-155 -222,-330 -193,-508c25,-153 137,-302 280,-371c82,-40 76,-44 -33,-23c-162,31 -337,108 -457,200c-88,68 -210,204 -263,293c-90,152 -140,310 -158,503c-34,359 93,702 352,946c182,172 383,266 658,308c61,9 191,4 255,-9zm3,-1557c128,-85 129,-275 1,-363c-56,-40 -156,-47 -215,-17c-80,41 -124,111 -124,197c0,88 43,159 122,199c53,27 163,18 216,-16z" fill="#d4b012" id="svg_61"/>
     <path d="m2503,-927c-35,-3 -43,-8 -43,-24c0,-14 7,-19 30,-19l30,0l0,-115l0,-115l-30,0c-23,0 -30,-4 -30,-20c0,-19 7,-20 90,-20c83,0 90,1 90,20c0,16 -7,20 -30,20l-30,0l0,140c0,127 -2,140 -17,138c-10,-1 -37,-3 -60,-5z" fill="#d4b012" id="svg_60"/>
     <path d="m3322,-650c-28,-38 -52,-73 -52,-78c0,-10 115,-92 128,-92c6,0 12,6 15,14c4,9 -9,24 -34,40c-21,15 -39,33 -39,41c0,27 28,27 63,1c30,-23 36,-24 46,-12c10,12 6,19 -23,38c-20,13 -36,28 -36,35c0,25 22,24 56,-2c32,-24 64,-28 64,-8c-1,10 -114,93 -127,93c-5,0 -32,-31 -61,-70z" fill="#d4b012" id="svg_59"/>
     <path d="m1627,-650l-25,-20l30,-93c17,-50 32,-93 34,-95c1,-2 12,2 24,8c15,8 20,18 17,31c-6,24 39,62 66,55c19,-5 57,12 57,25c0,4 -24,20 -52,37c-29,16 -69,39 -89,51l-36,21l-26,-20zm82,-69c12,-8 12,-12 2,-25c-8,-9 -17,-16 -21,-16c-7,0 -30,53 -30,67c0,4 23,-8 49,-26z" fill="#d4b012" id="svg_58"/>
     <path d="m1460,-805c-55,-55 -62,-66 -50,-80c12,-14 15,-14 35,5c12,11 25,20 30,20c4,0 30,-21 57,-46c50,-46 64,-50 82,-22c8,13 -2,26 -45,66c-52,48 -53,51 -36,69c21,23 22,39 3,46c-8,3 -40,-21 -76,-58z" fill="#d4b012" id="svg_57"/>
     <path d="m3524,-760c-33,-13 -64,-59 -64,-96c0,-39 51,-99 94,-110c23,-5 33,-1 57,23l29,29l-30,29c-23,22 -33,26 -42,17c-8,-8 -8,-15 2,-26c19,-24 -16,-33 -40,-11c-28,25 -25,60 6,84c42,33 71,27 92,-16c19,-42 45,-50 50,-15c3,16 -8,35 -36,62c-41,41 -72,49 -118,30z" fill="#d4b012" id="svg_56"/>
     <path d="m3673,-970c-56,-33 -68,-81 -34,-136c22,-36 70,-59 105,-50c13,3 38,18 55,32c24,20 31,34 31,61c0,91 -81,139 -157,93zm101,-46c22,-21 20,-37 -6,-61c-31,-28 -56,-35 -79,-23c-27,15 -24,55 7,79c32,25 57,27 78,5z" fill="#d4b012" id="svg_55"/>
     <path d="m1302,-1000c-6,-11 -12,-21 -12,-24c0,-6 160,-109 163,-105c60,81 78,112 73,124c-5,15 -36,21 -36,8c0,-5 -11,-21 -23,-37l-24,-29l-61,41c-33,23 -62,42 -64,42c-2,0 -9,-9 -16,-20z" fill="#d4b012" id="svg_54"/>
     <path d="m1230,-1121c-14,-25 -19,-20 58,-54c49,-22 62,-32 62,-50c0,-45 -24,-50 -96,-19c-55,23 -67,25 -75,13c-5,-8 -9,-19 -9,-25c0,-14 113,-64 146,-64c63,0 110,113 64,155c-19,18 -115,65 -131,65c-4,0 -13,-9 -19,-21z" fill="#d4b012" id="svg_53"/>
     <path d="m3795,-1192c-30,-16 -55,-50 -55,-76c0,-37 28,-88 56,-101c36,-16 44,-14 44,14c0,15 -6,25 -15,25c-8,0 -22,12 -31,26c-16,24 -16,26 3,45c10,11 35,22 55,25c30,5 38,3 47,-15c8,-14 8,-27 2,-39c-6,-12 -5,-23 6,-37c14,-20 14,-20 29,-1c27,37 7,113 -35,136c-25,13 -81,12 -106,-2z" fill="#d4b012" id="svg_52"/>
     <path d="m1139,-1379c-59,-59 -29,-149 55,-165c62,-12 108,22 122,90c4,21 0,37 -17,57c-20,26 -23,27 -37,13c-13,-13 -14,-19 -3,-39c21,-38 11,-62 -27,-65c-64,-6 -109,51 -62,80c21,13 28,58 9,58c-6,0 -24,-13 -40,-29z" fill="#d4b012" id="svg_51"/>
     <path d="m3883,-1413c-73,-18 -83,-23 -83,-43c0,-13 4,-25 8,-28c14,-9 187,40 186,52c-4,50 5,48 -111,19z" fill="#d4b012" id="svg_50"/>
     <path d="m3883,-1535c-53,-23 -69,-85 -38,-144c17,-34 33,-41 90,-41c65,0 100,33 100,95c0,40 -5,51 -33,76c-36,32 -69,36 -119,14zm105,-80c4,-35 -18,-55 -63,-55c-35,0 -55,15 -55,41c0,32 29,50 74,47c37,-3 41,-6 44,-33z" fill="#d4b012" id="svg_49"/>
     <path d="m1181,-1611c-52,-16 -96,-30 -98,-32c-1,-2 -5,-17 -9,-33c-5,-28 -3,-30 80,-67c124,-54 116,-53 116,-23c0,15 -7,29 -15,32c-10,4 -15,20 -15,44c0,30 5,40 20,45c14,4 20,15 20,36c0,16 -1,28 -2,28c-2,-1 -45,-14 -97,-30zm19,-69c0,-21 -10,-24 -47,-14c-41,11 -25,26 35,33c6,0 12,-8 12,-19z" fill="#d4b012" id="svg_48"/>
     <path d="m3873,-1782c-54,-26 -46,-149 11,-164c36,-9 63,11 78,58c16,46 48,65 48,28c0,-11 -7,-23 -15,-26c-19,-8 -20,-54 -2,-54c46,0 65,102 27,140c-11,11 -24,20 -29,20c-19,0 -56,-39 -66,-71c-8,-23 -18,-34 -31,-34c-27,0 -31,41 -5,55c13,6 21,21 21,35c0,27 -4,29 -37,13z" fill="#d4b012" id="svg_47"/>
     <path d="m1075,-1872c3,-40 8,-74 9,-76c2,-1 47,0 100,4l97,7l-3,26c-3,23 -8,26 -43,27c-39,0 -40,1 -43,37c-3,29 -7,37 -23,37c-16,0 -19,-7 -19,-40c0,-33 -3,-40 -20,-40c-17,0 -20,7 -20,45c0,39 -3,45 -21,45c-21,0 -21,-3 -14,-72z" fill="#d4b012" id="svg_46"/>
     <path d="m1452,-2672c-7,-7 -12,-18 -12,-25c0,-15 30,-32 48,-26c17,7 15,50 -4,57c-20,8 -18,8 -32,-6z" fill="#d4b012" id="svg_45"/>
     <path d="m3643,-2667c-18,-6 -16,-50 1,-56c8,-3 22,1 33,8c28,21 -1,62 -34,48z" fill="#d4b012" id="svg_44"/>
     <path d="m1574,-2774c-24,-24 -44,-53 -44,-64c0,-21 87,-106 128,-125c18,-8 26,-7 39,6c14,13 14,19 3,32c-7,9 -19,14 -27,11c-17,-7 -83,51 -83,73c0,10 10,27 23,39l24,22l41,-29c23,-17 42,-40 44,-53c4,-28 41,-32 46,-5c6,28 -108,137 -141,137c-5,0 -29,-20 -53,-44z" fill="#d4b012" id="svg_43"/>
     <path d="m3440,-2755c-12,-14 -7,-105 7,-142c8,-19 -13,-16 -79,14c-55,24 -60,25 -75,10c-9,-9 -15,-18 -12,-21c2,-2 40,-20 84,-40l79,-37l26,20c28,21 28,31 9,144c-11,69 -18,78 -39,52z" fill="#d4b012" id="svg_42"/>
     <path d="m3227,-2912c-15,-12 -12,-20 28,-83c42,-65 57,-76 79,-55c8,8 -72,150 -85,150c-3,0 -13,-6 -22,-12z" fill="#d4b012" id="svg_41"/>
     <path d="m1796,-2967c-71,-42 -77,-48 -61,-60c10,-7 28,-10 41,-7c35,9 131,-47 118,-68c-6,-9 23,-37 39,-38c4,0 7,44 7,98c0,96 -1,99 -25,110c-35,16 -30,18 -119,-35zm101,-70c-6,-5 -67,25 -67,32c0,3 15,14 33,25l32,20l3,-36c2,-20 1,-38 -1,-41z" fill="#d4b012" id="svg_40"/>
     <path d="m2043,-3099c-22,-83 -21,-91 7,-91c12,0 21,14 30,48c7,26 16,51 20,55c4,5 15,-23 25,-61c22,-93 37,-97 110,-30c30,27 55,46 55,41c0,-6 -7,-32 -15,-59c-14,-49 -10,-63 21,-64c11,0 58,159 50,167c-2,3 -22,7 -43,10c-34,4 -42,1 -78,-36c-21,-23 -42,-41 -46,-41c-4,0 -13,25 -20,55c-14,61 -20,70 -64,79l-31,7l-21,-80z" fill="#d4b012" id="svg_39"/>
     <path d="m2930,-3047c-72,-19 -97,-43 -84,-80c8,-24 15,-28 49,-27c22,0 59,4 83,9c35,6 42,5 42,-8c0,-19 -63,-39 -112,-35c-27,3 -33,0 -33,-17c0,-29 46,-30 125,-2c68,23 78,35 65,84c-6,25 -8,25 -58,19c-29,-3 -67,-9 -84,-12c-21,-4 -33,-2 -33,5c0,17 40,33 89,36c25,2 49,4 54,4c14,2 7,29 -9,35c-20,8 -29,7 -94,-11z" fill="#d4b012" id="svg_38"/>
     <path d="m2365,-3172c-3,-43 -4,-82 0,-88c12,-19 43,-11 47,12c3,21 9,22 73,23c66,0 70,1 83,28c19,40 4,79 -34,88c-16,4 -59,9 -95,11l-67,4l-7,-78zm155,6c0,-22 -4,-24 -49,-24c-54,0 -63,6 -55,36c4,16 12,18 55,16c44,-4 49,-6 49,-28z" fill="#d4b012" id="svg_37"/>
     <path d="m2770,-3155c0,-60 -2,-65 -24,-71c-38,-9 -91,-1 -93,16c-14,112 -12,107 -38,103c-22,-5 -23,-8 -18,-62c8,-87 21,-101 94,-101c33,0 75,7 94,14c34,15 35,16 35,75c0,72 -6,91 -31,91c-17,0 -19,-8 -19,-65z" fill="#d4b012" id="svg_24"/>
     <path d="m670,-1481c0,-63 18,-153 45,-224c13,-33 26,-91 29,-130l6,-70l-42,70c-28,47 -44,64 -46,53c-8,-40 50,-191 99,-258c15,-21 92,-260 83,-260c-2,0 -23,30 -47,68c-24,37 -59,81 -77,97c-32,30 -32,30 -25,5c18,-61 81,-162 134,-216c43,-44 69,-82 100,-149l42,-90l-48,46c-53,52 -134,112 -141,105c-17,-18 138,-180 205,-214c21,-11 52,-45 83,-92c27,-41 48,-75 47,-77c-2,-1 -38,15 -80,36c-42,21 -89,41 -103,44l-25,4l28,-29c41,-43 119,-90 188,-114c50,-17 72,-33 138,-100c42,-44 77,-83 77,-86c0,-3 -30,5 -67,17c-38,13 -93,27 -123,30l-55,7l44,-28c60,-37 167,-74 217,-74c34,0 55,-10 132,-67c50,-37 90,-68 88,-70c-2,-2 -32,3 -67,12c-35,8 -90,15 -122,15l-58,0l-364,226c-313,194 -367,224 -384,215c-16,-9 -30,-6 -66,11c-38,18 -49,20 -65,10c-15,-9 -25,-9 -45,0c-21,9 -31,9 -47,-1c-17,-11 -27,-10 -58,4c-28,13 -43,14 -56,7c-13,-7 -26,-6 -47,5c-26,13 -31,13 -54,-2c-24,-16 -27,-16 -67,6c-61,32 -76,23 -76,-48l1,-58l487,-301c1058,-655 1738,-1077 1750,-1088c10,-10 0,-34 -49,-121c-82,-148 -149,-281 -149,-299c0,-19 26,-28 38,-13c5,7 53,99 106,205c54,105 101,192 106,192c5,0 30,-12 55,-27c30,-19 49,-38 56,-60c5,-17 28,-48 50,-67c35,-32 45,-36 95,-36c30,0 65,5 77,11c38,20 76,61 88,96c7,24 25,43 57,63c44,27 48,28 60,12c7,-9 54,-98 104,-197c50,-99 95,-185 100,-192c13,-16 38,-5 38,16c0,14 -122,249 -190,368c-14,23 -22,44 -20,46c3,2 408,237 900,522c492,285 947,548 1010,585c63,37 143,82 177,101l63,34l0,71c0,70 0,71 -34,89c-29,16 -38,17 -64,6c-23,-10 -35,-10 -51,-2c-16,9 -28,8 -53,-5c-24,-13 -36,-14 -50,-5c-23,14 -51,14 -65,0c-8,-8 -17,-7 -34,4c-20,15 -25,14 -62,-4c-31,-16 -45,-19 -62,-11c-18,8 -31,6 -61,-10c-22,-11 -438,-252 -926,-534c-488,-283 -888,-514 -891,-514c-7,0 -77,109 -77,119c0,16 114,154 163,198c90,79 149,92 262,60c62,-18 231,-24 221,-8c-6,9 -94,33 -176,48l-45,8l90,32c74,25 110,32 205,36c78,3 133,11 170,24l55,20l-37,7c-20,4 -66,4 -102,0c-36,-4 -66,-4 -66,-1c0,3 33,23 72,44c61,32 81,37 123,35c60,-4 177,19 237,46l43,20l-65,1c-36,0 -94,-6 -129,-14c-35,-9 -65,-14 -67,-12c-2,2 37,34 87,70c75,55 98,67 129,67c51,0 148,31 207,66c40,24 44,29 27,32c-24,3 -130,-22 -181,-43c-18,-8 -33,-11 -33,-8c0,4 35,43 78,87c65,67 87,83 140,102c72,26 145,70 186,113l29,31l-30,-9c-46,-13 -120,-48 -152,-71c-16,-11 -32,-20 -35,-20c-4,0 18,36 47,80c39,57 68,90 103,111c27,17 69,50 92,72c46,44 107,125 100,133c-7,7 -88,-53 -141,-105l-48,-46l41,90c31,67 58,107 105,155c57,60 111,147 130,210c7,23 5,23 -29,-10c-20,-19 -55,-63 -77,-97c-23,-35 -42,-63 -43,-63c-4,0 59,211 69,234c5,11 23,44 42,75c34,57 73,165 73,204c0,27 -9,17 -55,-58l-37,-60l7,65c3,36 19,103 35,150c34,102 52,269 25,235c-18,-23 -43,-101 -52,-162c-9,-66 -28,-61 -67,20c-41,83 -85,143 -86,114c-1,-49 59,-185 103,-234c18,-20 19,-31 13,-105c-10,-136 -14,-140 -50,-51c-17,43 -39,89 -49,103l-17,24l0,-30c0,-45 27,-142 57,-203l26,-54l-22,-94c-13,-51 -26,-93 -31,-93c-4,0 -11,19 -14,43c-4,23 -15,60 -26,82l-18,40l-1,-72c-1,-40 4,-104 11,-142c11,-67 11,-72 -17,-141c-48,-119 -55,-120 -48,-6c4,70 3,97 -5,92c-21,-13 -46,-113 -51,-211c-6,-98 -7,-101 -49,-163c-24,-35 -46,-62 -48,-60c-2,3 0,18 5,34c15,52 24,174 13,174c-22,0 -72,-170 -72,-247c0,-36 -8,-50 -56,-107c-31,-36 -60,-66 -64,-66c-5,0 0,24 10,53c10,28 21,68 24,87l7,35l-21,-25c-33,-41 -87,-141 -105,-198c-13,-39 -29,-62 -60,-87c-23,-19 -45,-35 -48,-35c-4,0 10,29 29,65c20,36 34,68 32,70c-9,10 -123,-112 -164,-176c-37,-57 -53,-71 -114,-103c-38,-20 -70,-35 -70,-32c0,3 16,27 35,52c39,50 69,103 63,110c-9,8 -124,-104 -166,-161c-39,-53 -82,-85 -115,-85c-6,0 4,14 23,30l35,31l-35,-7c-56,-10 -148,-50 -225,-99c-40,-25 -79,-45 -86,-45c-47,0 -166,-101 -270,-229l-36,-43l-50,63c-90,113 -206,209 -254,209c-6,0 -44,20 -84,45c-77,49 -169,89 -225,99l-35,7l35,-31c19,-16 29,-30 23,-30c-33,0 -76,32 -115,85c-42,57 -153,165 -170,165c-10,0 29,-66 69,-117c18,-23 33,-44 33,-48c0,-3 -32,11 -70,31c-61,32 -77,46 -114,103c-43,66 -140,171 -158,171c-6,0 6,-29 26,-65c20,-36 33,-65 29,-65c-3,0 -25,15 -48,34c-33,28 -48,50 -69,108c-31,85 -109,212 -114,186c-2,-9 8,-49 22,-89c14,-40 24,-75 22,-77c-2,-2 -31,28 -63,66c-58,67 -60,71 -67,142c-7,74 -45,204 -67,224c-13,13 -5,-117 11,-174c5,-19 8,-35 6,-38c-3,-2 -25,27 -50,65c-45,66 -46,70 -46,143c0,78 -28,202 -50,223c-10,10 -11,-9 -8,-85c3,-54 2,-95 -2,-93c-5,3 -24,43 -43,89c-35,83 -35,84 -21,142c16,70 19,223 4,208c-6,-6 -18,-43 -28,-82c-9,-40 -20,-72 -24,-72c-3,0 -16,42 -29,93l-22,94l26,56c28,58 57,163 57,207c0,25 0,25 -20,-5c-11,-16 -32,-61 -47,-98c-32,-81 -39,-74 -48,43l-7,85l40,60c42,62 86,175 79,204c-4,21 -76,-88 -101,-153c-21,-56 -40,-50 -49,17c-9,59 -34,139 -51,162c-14,19 -15,17 -16,-26zm-439,-1297c51,-33 716,-446 1524,-947c308,-191 566,-352 573,-359c10,-10 10,-15 0,-29c-12,-15 -46,4 -348,191c-1021,634 -1291,802 -1545,959c-153,95 -283,177 -288,182c-13,13 0,31 22,31c9,0 37,-13 62,-28zm303,-135c381,-236 855,-530 1051,-652c99,-61 314,-194 478,-296c260,-161 323,-208 284,-211c-5,0 -52,27 -105,60c-53,33 -331,205 -617,383c-286,177 -698,433 -915,567c-217,135 -413,256 -434,270c-28,17 -35,26 -26,32c7,5 20,6 28,2c9,-3 124,-73 256,-155zm-68,105c99,-61 1380,-855 1692,-1049c127,-80 232,-148 232,-152c-1,-39 -40,-17 -606,335c-324,201 -779,483 -1011,627c-321,200 -419,265 -411,274c15,18 17,18 104,-35zm977,-548c529,-328 965,-599 969,-603c4,-3 3,-13 -2,-21c-10,-16 28,-38 -575,337c-203,126 -597,370 -875,543c-278,172 -507,314 -509,316c-6,5 10,24 20,24c5,0 443,-268 972,-596zm-594,419c130,-80 441,-273 691,-428c556,-345 894,-555 899,-561c3,-2 0,-9 -6,-15c-7,-7 -81,33 -249,138c-132,82 -309,192 -394,245c-85,53 -348,216 -585,364c-236,147 -474,294 -527,327c-54,33 -98,64 -98,68c0,24 52,-3 269,-138zm4120,93c10,-12 8,-18 -11,-29c-13,-9 -392,-229 -843,-490c-451,-261 -932,-540 -1070,-620c-222,-129 -251,-144 -262,-129c-7,9 -13,18 -13,22c0,3 177,108 393,233c215,124 703,407 1082,627c380,220 695,400 701,400c6,0 17,-6 23,-14zm-311,-8c-2,-6 -200,-124 -439,-263c-238,-138 -676,-392 -973,-564c-381,-221 -542,-309 -549,-302c-8,8 -8,14 0,22c27,27 1921,1118 1941,1118c14,1 22,-4 20,-11zm99,-3c1,-5 -41,-35 -95,-66c-53,-30 -268,-155 -477,-276c-209,-121 -618,-358 -909,-527c-291,-169 -535,-305 -543,-302c-7,3 -13,11 -13,18c1,7 375,229 832,493c457,264 905,524 997,577c154,91 199,109 208,83zm107,7c4,-8 -2071,-1214 -2100,-1220c-77,-17 111,98 1026,628c569,330 1043,600 1052,600c9,0 19,-3 22,-8zm-334,-21c0,-8 -144,-93 -1100,-647c-245,-141 -512,-297 -595,-345c-94,-55 -154,-84 -160,-78c-6,6 -4,14 5,23c8,7 251,149 540,316c289,167 608,352 710,411c102,58 271,156 375,218c176,103 225,125 225,102zm-2962,-416c73,-3 91,-7 153,-40c38,-20 69,-38 69,-39c0,-2 -51,-3 -113,-2l-113,1l-72,44c-39,24 -72,46 -72,48c0,3 15,2 33,-2c17,-4 69,-9 115,-10zm119,-120c31,-8 97,-15 146,-15c74,0 103,-5 180,-32l92,-33l-45,-8c-86,-16 -170,-39 -176,-49c-11,-18 194,-4 259,17c54,18 60,18 110,2c31,-10 72,-34 104,-62c54,-47 173,-189 173,-206c0,-14 -72,-119 -81,-119c-7,0 -763,464 -824,506c-25,18 -10,18 62,-1zm902,-463c17,-27 31,-53 31,-58c0,-16 -67,-46 -86,-40c-11,4 -27,13 -37,20c-17,13 -16,17 19,70c20,31 38,56 39,56c2,0 17,-22 34,-48zm56,-91c0,-6 -22,-25 -49,-40l-49,-29l-43,26c-24,15 -44,33 -44,39c0,18 18,16 56,-7l33,-21l38,25c39,26 58,28 58,7zm23,-42c1,-8 -23,-28 -62,-49l-64,-34l-57,38c-43,28 -54,41 -46,49c9,9 24,5 62,-16l49,-28l48,30c49,31 65,33 70,10zm22,-23c0,-2 3,-11 6,-19c4,-10 -16,-27 -66,-56c-40,-22 -77,-41 -83,-41c-24,0 -137,76 -137,93c0,25 19,21 80,-17l55,-35l55,31c30,17 59,35 65,40c9,8 25,11 25,4zm-219,-90l72,-45l41,21c23,12 58,32 78,44c43,28 58,30 58,9c0,-11 -157,-115 -175,-115c-2,0 -40,23 -84,51c-54,34 -78,55 -74,65c3,8 7,14 9,14c2,0 36,-20 75,-44zm-5,-52c39,-24 74,-44 79,-44c4,0 47,23 96,51c49,28 93,48 99,44c28,-17 4,-43 -92,-99l-101,-58l-31,18c-17,10 -62,37 -99,61c-60,39 -66,45 -57,63c6,12 16,18 23,14c7,-4 44,-27 83,-50z" fill="#d4b012" id="svg_22"/>
     <path d="m653,-3595c-24,-19 -7,-48 33,-55c32,-5 72,-27 364,-195c107,-62 277,-158 378,-215l183,-103l133,37l132,38l127,-73c71,-39 124,-76 120,-80c-4,-4 -39,-16 -76,-26l-68,-18l-84,45l-84,45l-63,-18c-35,-10 -90,-25 -123,-33l-61,-16l-49,30c-28,16 -105,60 -173,98c-67,37 -129,78 -137,91c-17,26 -37,29 -54,9c-17,-21 -2,-46 28,-46c26,0 332,-169 338,-187c2,-5 -24,-16 -56,-26l-59,-18l-173,100c-171,98 -173,99 -185,142c-7,24 -19,69 -28,100l-16,57l-98,55l-98,56l-75,-21l-75,-20l-78,43c-43,24 -83,54 -89,67c-18,38 -70,22 -60,-19c4,-12 14,-19 30,-19c14,0 65,-21 113,-47l87,-47l71,21l71,21l73,-42c40,-22 72,-45 71,-51c-3,-15 -225,-77 -259,-71c-18,2 -37,-1 -43,-7c-16,-16 -14,-44 5,-51c21,-8 21,-8 41,13c16,16 253,91 288,91c11,0 55,-133 55,-166c0,-13 -166,-58 -215,-59c-36,0 -40,-3 -40,-25c0,-30 29,-39 54,-16c17,16 166,65 206,68c11,1 98,-42 193,-96l173,-99l92,25c51,14 143,40 206,58l113,34l52,-29c85,-47 86,-48 25,-66c-52,-16 -56,-16 -93,3l-38,19l-147,-39c-80,-22 -153,-42 -162,-44c-9,-2 -54,18 -101,44l-84,48l-105,-30c-57,-17 -114,-28 -126,-25c-30,7 -53,-4 -53,-26c0,-30 32,-41 55,-19c11,10 66,32 123,49l103,30l86,-48l85,-49l62,18c33,9 106,30 160,45l99,29l40,-22l40,-22l137,40c76,22 146,40 154,40c13,0 7,-17 -25,-77c-23,-43 -48,-83 -56,-89c-8,-7 -43,-19 -79,-28l-65,-17l-71,38c-39,21 -77,48 -85,61c-17,25 -51,29 -59,7c-9,-22 16,-47 40,-41c23,6 141,-63 129,-75c-9,-9 -251,-79 -272,-79c-8,0 -55,23 -105,51l-90,51l-52,-11c-28,-7 -63,-9 -77,-6c-34,9 -55,-25 -31,-49c20,-20 23,-20 48,3c12,10 41,23 66,29c44,11 47,10 135,-40c50,-28 97,-51 106,-50c9,0 117,30 242,66c124,36 228,66 231,66c7,0 116,201 116,215c0,7 -66,50 -147,95l-146,83l-132,-38l-132,-37l-154,87c-85,48 -210,120 -279,160c-69,39 -202,116 -297,169c-97,55 -175,106 -178,116c-8,25 -30,31 -52,15z" fill="#d4b012" id="svg_21"/>
     <path d="m4467,-3623c-9,-14 -103,-73 -219,-138c-112,-62 -322,-180 -466,-261l-264,-148l-126,36c-70,19 -134,36 -143,37c-15,1 -282,-144 -307,-167c-9,-9 1,-34 50,-121l63,-110l252,-71l253,-71l96,55c84,48 101,54 136,49c22,-3 56,-17 76,-31c40,-28 65,-20 60,18c-2,17 -11,21 -48,22c-25,1 -65,5 -90,9c-41,6 -52,2 -134,-44c-49,-28 -95,-51 -103,-51c-17,0 -263,70 -282,80c-20,11 96,80 135,80c33,0 48,18 38,45c-9,22 -51,19 -59,-5c-3,-11 -41,-39 -86,-64l-79,-45l-78,22l-77,22l-48,84c-26,46 -47,87 -45,91c2,4 73,-13 158,-37l154,-44l46,21l45,21l168,-46l167,-46l82,47c46,26 90,47 98,46c40,-1 207,-56 227,-74c26,-24 57,-20 61,8c4,28 -21,48 -45,36c-13,-7 -51,0 -133,24l-115,33l-90,-50c-82,-45 -93,-49 -125,-41c-19,5 -97,26 -173,46l-138,37l-34,-21c-34,-21 -37,-21 -90,-5c-30,8 -55,19 -55,23c0,10 116,72 135,72c9,0 107,-26 218,-57l200,-56l61,31c34,18 119,64 189,103l129,71l96,-27c54,-14 110,-35 125,-46c36,-26 62,-21 62,11c0,22 -4,25 -35,25c-52,1 -221,47 -227,63c-8,19 38,172 51,172c35,0 291,-81 298,-95c11,-19 54,-20 62,0c11,29 -5,47 -38,42c-34,-5 -291,63 -291,77c0,4 34,28 75,52l75,43l80,-21l80,-21l75,43c41,24 93,46 115,49c31,5 41,11 43,27c6,43 -50,55 -63,14c-3,-11 -44,-40 -90,-65l-85,-46l-78,21l-78,21l-104,-58c-93,-52 -105,-62 -113,-93c-4,-19 -17,-65 -28,-102l-19,-67l-169,-95c-93,-53 -176,-98 -184,-102c-16,-6 -137,26 -137,36c0,3 15,13 33,24c203,117 303,169 324,170c36,1 53,30 31,52c-19,20 -48,12 -55,-14c-4,-18 -358,-222 -384,-222c-8,0 -67,16 -133,34l-119,35l-85,-48l-85,-49l-71,20c-39,11 -75,23 -79,28c-10,9 236,150 263,150c12,0 77,-16 145,-36l124,-35l268,149c147,82 322,180 388,217c66,37 149,83 185,103c36,19 71,39 78,45c7,6 30,13 50,16c31,5 37,10 37,31c0,35 -37,39 -58,7z" fill="#d4b012" id="svg_20"/>
    </g>
   </g>
  </symbol>
 </defs>
</svg>